<svg xmlns="http://www.w3.org/2000/svg" width="30" height="33" viewBox="0 0 30 33"><defs><style>.a{fill:none;stroke:#fff;stroke-linecap:round;stroke-linejoin:round;stroke-width:3px;}</style></defs><g transform="translate(-3 -1.5)"><path class="a" d="M31.5,7.5A4.5,4.5,0,1,1,27,3a4.5,4.5,0,0,1,4.5,4.5Z"/><path class="a" d="M13.5,18A4.5,4.5,0,1,1,9,13.5,4.5,4.5,0,0,1,13.5,18Z"/><path class="a" d="M31.5,28.5A4.5,4.5,0,1,1,27,24,4.5,4.5,0,0,1,31.5,28.5Z"/><path class="a" d="M12.885,20.265l10.245,5.97"/><path class="a" d="M23.115,9.765l-10.23,5.97"/></g></svg>